<svg id="Layer_1" data-name="Layer 1" xmlns="http://www.w3.org/2000/svg" viewBox="0 0 4840.14 3572.71"><defs><style>.cls-1{fill:none;stroke:#fff;stroke-miterlimit:10;stroke-width:17px;}.cls-2{fill:#fff;}</style></defs><title>quote</title><path class="cls-1" d="M4286.86,2181.92V1079.81c0-82-67.12-149.14-149.15-149.14H1052"/><path class="cls-1" d="M691,1353.43v1046c0,82,67.11,149.14,149.14,149.14H3923.86"/><path class="cls-2" d="M696.41,805.68a775.29,775.29,0,0,0-61.49,54.26A547.92,547.92,0,0,0,582,919.86,409.37,409.37,0,0,0,541.79,984a235.91,235.91,0,0,0-22.21,67q36.85,25.48,63.82,42.93t44.43,33.5q17.48,16,25.53,33.95t8,44.35c0,8.8-2.23,18.41-6.63,28.76a94.64,94.64,0,0,1-19.36,28.8,109.56,109.56,0,0,1-31.2,22.16q-18.45,9-42.1,9-38.76,0-65.71-13.67a109.8,109.8,0,0,1-43-38.22Q437.3,1218,430.2,1184t-7.07-75.5a246,246,0,0,1,12.28-78.29,337.63,337.63,0,0,1,32.15-69.34A387.18,387.18,0,0,1,513,900.49q25.51-27.81,52.48-51.89t53-43.39q26-19.34,46.81-34.44Zm325.27,0a774.87,774.87,0,0,0-61.46,54.26,547,547,0,0,0-53,59.92A437.28,437.28,0,0,0,866.6,984,250.71,250.71,0,0,0,843,1051q37.83,25.48,65.25,42.93t44.89,33.5q17.49,16,25.53,33.95t8.06,44.35c0,8.8-2.23,18.41-6.63,28.76a94.68,94.68,0,0,1-19.37,28.8,109.38,109.38,0,0,1-31.22,22.16q-18.45,9-42.08,9-38.76,0-65.71-13.67a109.87,109.87,0,0,1-43-38.22Q762.59,1218,755.5,1184t-7.1-75.5q0-62.25,26-114.15a421.93,421.93,0,0,1,63.85-93.85A625.77,625.77,0,0,1,917.68,826q41.6-32.54,72.81-55.2Z"/><path class="cls-2" d="M3951.58,2768.33q32.11-25.54,61.44-53.93a519.55,519.55,0,0,0,53-59.63,439.84,439.84,0,0,0,40.64-64.36,276.4,276.4,0,0,0,24.6-68.15q-38.79-25.55-65.74-42.59t-44-32.65q-17-15.6-25.06-33.11t-8-45q0-14.18,6.6-30.27A91.27,91.27,0,0,1,4014,2309.8a102.28,102.28,0,0,1,30.27-21.31q17.94-8.5,40.65-8.51,39.69,0,66.67,13.72a115.24,115.24,0,0,1,43.49,37.85q16.54,24.15,24.11,58.7t7.58,75.23q0,62.46-26,114.05a437.8,437.8,0,0,1-63.82,94.17,577.3,577.3,0,0,1-80.39,75.24q-42.57,32.66-74.7,56.31Zm325.27,0q32.16-25.54,61.47-53.93a521.05,521.05,0,0,0,52.94-59.63,437.62,437.62,0,0,0,40.68-64.36,277.62,277.62,0,0,0,24.6-68.15q-38.8-25.55-65.74-42.59T4345.88,2447q-17.94-15.6-26-33.11t-8-45q0-14.18,6.6-30.27a87.62,87.62,0,0,1,19.39-28.87,107,107,0,0,1,31.2-21.31q18.4-8.5,41.14-8.51,39.69,0,66.18,13.72a116.13,116.13,0,0,1,43,37.85q16.55,24.15,23.64,58.7t7.09,75.23q0,61.53-26,113.59a434.2,434.2,0,0,1-63.82,94.63,609.88,609.88,0,0,1-79.44,75.24q-41.62,32.66-72.8,56.31Z"/></svg>